Munde Patiale De 2013 Hindi Punjabi Movies DVDScr Sample Included ~ rDX

Screen Shots :
 
http://myimghosting.serveftp.com/MundePatialeDe.html
 
http://myimghost.cwahi.net/MundePatialeDe.html


Format                                   : MPEG-4
Format profile                           : Base Media
Codec ID                                 : isom
File size                                : 691 MiB
Duration                                 : 1h 44mn
Overall bit rate mode                    : Variable
Overall bit rate                         : 923 Kbps
Writing application                      : Lavf52.61.0

Video
ID                                       : 1
Format                                   : MPEG-4 Visual
Format profile                           : Simple@L3
Format settings, BVOP                    : No
Format settings, QPel                    : No
Format settings, GMC                     : No warppoints
Format settings, Matrix                  : Default (H.263)
Codec ID                                 : 20
Duration                                 : 1h 44mn
Bit rate                                 : 426 Kbps
Width                                    : 640 pixels
Height                                   : 288 pixels
Display aspect ratio                     : 16:9
Frame rate mode                          : Variable
Frame rate                               : 25.000 fps
Original frame rate                      : 29.970 fps
Minimum frame rate                       : 14.985 fps
Maximum frame rate                       : 29.970 fps
Color space                              : YUV
Chroma subsampling                       : 4:2:0
Bit depth                                : 8 bits
Scan type                                : Progressive
Compression mode                         : Lossy
Bits/(Pixel*Frame)                       : 0.093
Stream size                              : 319 MiB (46%)
Writing library                          : XviD 1.2.1 (UTC 2008-12-04)

Audio
ID                                       : 2
Format                                   : AAC
Format/Info                              : Advanced Audio Codec
Format profile                           : LC
Codec ID                                 : 40
Duration                                 : 1h 44mn
Bit rate mode                            : Variable
Bit rate                                 : 64.0 Kbps
Channel(s)                               : 2 channels
Channel positions                        : Front: L R
Sampling rate                            : 24.0 KHz
Compression mode                         : Lossy
Stream size                              : 47.9 MiB (7%)